<?xml version="1.0" standalone="yes"?>
<svg xmlns="http://www.w3.org/2000/svg" width="76" height="76">
<path style="fill:#516f55; stroke:none;" d="M0 0L0 31L1 31C3.11802 16.8591 14.396 4.91905 28 1L0 0z"/>
<path style="fill:#262422; stroke:none;" d="M76 29L75 29C73.2439 38.4592 73.8945 47.6309 68.2145 55.9992C44.5933 90.8003 -12.4865 65.7296 4.87963 25C7.17524 19.616 10.7351 15.0606 15.0039 11.0934C21.4355 5.11597 28.7488 3.14023 37 1C22.8991 -4.91477 6.77845 12.3342 2.43904 24C-9.21526 55.3306 22.9923 87.0951 54 72.6759C61.112 69.3687 67.2067 63.8021 71.1204 57C76.3015 47.995 76 39.0304 76 29z"/>
<path style="fill:#516f55; stroke:none;" d="M35 1L35 2C56.3181 2 71.9805 9.19452 73 33L74 33C78.097 23.2907 76 10.3955 76 0L35 1z"/>
<path style="fill:#a3a2a1; stroke:none;" d="M47 0L48 1L47 0M32 2L32 3C43.5869 3 51.0266 4.99614 61 11C54.2502 -0.904663 44.2489 2 32 2z"/>
<path style="fill:#516f55; stroke:none;" d="M30.6667 2.33334L31.3333 2.66666L30.6667 2.33334M27 3L28 4L27 3z"/>
<path style="fill:#a3a2a1; stroke:none;" d="M28.6667 3.33334L29.3333 3.66666L28.6667 3.33334z"/>
<path style="fill:#f5f6f5; stroke:none;" d="M71 49L67 51L67 46L68 49L69 49C68.7699 45.7975 66.463 42.1695 66.8619 39.1026C67.4357 34.6906 70.3577 37.6793 71 40L69 38L68 38L71 48L72 48C74.4253 34.9364 71.7484 25.2102 65 14L68 16L69 15L58 5L61 11C29.1284 -15.1904 -11.2099 24.8013 8.27778 58.9961C21.8235 82.7647 64.1462 72.7366 71 49z"/>
<path style="fill:#516f55; stroke:none;" d="M24 4L25 5L24 4z"/>
<path style="fill:#a3a2a1; stroke:none;" d="M25.6667 4.33334L26.3333 4.66666L25.6667 4.33334M33 4L33 6L35 6L35 4L33 4z"/>
<path style="fill:#516f55; stroke:none;" d="M35 4L35 5L39 5L35 4z"/>
<path style="fill:#a3a2a1; stroke:none;" d="M39 4L39 5L42 5L39 4z"/>
<path style="fill:#516f55; stroke:none;" d="M42 4L43 5L42 4z"/>
<path style="fill:#a3a2a1; stroke:none;" d="M43 4L43 5L49 8L49 9L45 9L43 11L42 8L41 8C43.5713 12.5449 46.8903 10.9035 51 9L51 8L43 4z"/>
<path style="fill:#516f55; stroke:none;" d="M22 5L23 6L22 5z"/>
<path style="fill:#a3a2a1; stroke:none;" d="M23 5L24 6L23 5M30.3333 5.66666L30.6667 6.33334L30.3333 5.66666z"/>
<path style="fill:#516f55; stroke:none;" d="M31.6667 5.33334L32.3333 5.66666L31.6667 5.33334z"/>
<path style="fill:#f5f6f5; stroke:none;" d="M23 12L30 9L30 10C25.6211 12.3412 23.7762 15.1161 23 20L24 20L34 11L26 24L27 24L32 16L31 25L32 25L33 23L34 23L34 25L36 25L36 20L37 20L41 25C39.7879 19.965 38.8225 15.6657 43 12L41 8L49 9C41.9579 1.97226 29.0233 4.97443 23 12z"/>
<path style="fill:#516f55; stroke:none;" d="M20 6L21 7L20 6z"/>
<path style="fill:#a3a2a1; stroke:none;" d="M21 6L22 7L21 6M28.3333 6.66666L28.6667 7.33334L28.3333 6.66666z"/>
<path style="fill:#516f55; stroke:none;" d="M29 6L30 7L29 6z"/>
<path style="fill:#a3a2a1; stroke:none;" d="M60 6L61 7L60 6M19 7L20 8L19 7M26.3333 7.66666L26.6667 8.33334L26.3333 7.66666z"/>
<path style="fill:#516f55; stroke:none;" d="M27 7L28 8L27 7M17 8L18 9L17 8z"/>
<path style="fill:#a3a2a1; stroke:none;" d="M18 8L19 9L18 8z"/>
<path style="fill:#516f55; stroke:none;" d="M25 8L26 9L25 8M42 8L43 9L42 8z"/>
<path style="fill:#a3a2a1; stroke:none;" d="M43 8L44 9L43 8z"/>
<path style="fill:#516f55; stroke:none;" d="M16 9L17 10L16 9z"/>
<path style="fill:#a3a2a1; stroke:none;" d="M19 15L22 14L21 25L24 20L25 20L22 27L25 25L27 26L26 29L30 30L28 21L27 21L27 24L26 24L34 11L30 12L29 13L25 17L24 20L23 20L30 10L30 9L26 12L23 12L25 9L19 15z"/>
<path style="fill:#262422; stroke:none;" d="M42.6667 9.33334L43.3333 9.66666L42.6667 9.33334z"/>
<path style="fill:#516f55; stroke:none;" d="M44 9L43 11L45 11L44 9z"/>
<path style="fill:#cb8918; stroke:none;" d="M39 15L39 16L50 17L54 10C48.3191 9.01242 43.4454 11.5963 39 15z"/>
<path style="fill:#a3a2a1; stroke:none;" d="M52 9L53 10L52 9M15 10L16 11L15 10M54 10L57 13L54 10M14 11L15 12L14 11z"/>
<path style="fill:#516f55; stroke:none;" d="M25 11L26 12L25 11M53 11L49 16L56 18L56 19L54 19L54 20L57 19L56 15L57 15L57 17L53 11z"/>
<path style="fill:#a3a2a1; stroke:none;" d="M13 12L14 13L13 12z"/>
<path style="fill:#516f55; stroke:none;" d="M24 12L22 13L22 14L24 12M31 12L32 13L31 12z"/>
<path style="fill:#a3a2a1; stroke:none;" d="M41 12L42 13L41 12M12 13L13 14L12 13z"/>
<path style="fill:#516f55; stroke:none;" d="M30 13L31 14L30 13z"/>
<path style="fill:#a3a2a1; stroke:none;" d="M40 13L41 14L40 13M11 14L12 15L11 14z"/>
<path style="fill:#516f55; stroke:none;" d="M19 16L22 14L19 16z"/>
<path style="fill:#a3a2a1; stroke:none;" d="M27 14L26 16L27 14z"/>
<path style="fill:#516f55; stroke:none;" d="M26 18L30 14L26 18z"/>
<path style="fill:#a3a2a1; stroke:none;" d="M39 14L40 15L39 14M57 14L58 15L57 14M65 14L71 27L72 27L69 15L65 14M10 15L11 16L10 15z"/>
<path style="fill:#262422; stroke:none;" d="M56 15L56 18L57 18L56 15M69 15L70 16L69 15z"/>
<path style="fill:#516f55; stroke:none;" d="M9 16L10 17L9 16z"/>
<path style="fill:#a3a2a1; stroke:none;" d="M19 16L20 17L19 16M31 16L29 17C30.1946 22.0153 29.2952 27.879 34 31L33 25L34 25C36.4016 31.6777 42.0507 30.5829 48 32L48 29C43.2015 26.4491 41.2959 23.4036 41 18L40 18L41 25L37 20L36 20L36 25L32 25L31 25L31 16M39 16L40 17L39 16z"/>
<path style="fill:#516f55; stroke:none;" d="M30 17L31 18L30 17M40 17L41 18L40 17z"/>
<path style="fill:#a3a2a1; stroke:none;" d="M46 17L46 18L53 18L46 17M57 17L58 18L57 17z"/>
<path style="fill:#f5f6f5; stroke:none;" d="M70 17L71 18L70 17z"/>
<path style="fill:#a3a2a1; stroke:none;" d="M8 18L9 19L8 18z"/>
<path style="fill:#516f55; stroke:none;" d="M25.3333 18.6667L25.6667 19.3333L25.3333 18.6667M29 18L30 30L28 29L28 30L38 35L37 32L47 32L47 31C41.0792 30.983 37.0412 30.5415 34 25L33 25L34 31L29 18M41 18L47 31L50 28C45.4294 25.7971 44.161 22.96 44 18L41 18z"/>
<path style="fill:#a3a2a1; stroke:none;" d="M44 18L44 25L45 25L44 18M53 18L54 19L53 18z"/>
<path style="fill:#262422; stroke:none;" d="M54.6667 18.3333L55.3333 18.6667L54.6667 18.3333z"/>
<path style="fill:#516f55; stroke:none;" d="M7 19L8 20L7 19z"/>
<path style="fill:#a3a2a1; stroke:none;" d="M28 19L29 20L28 19M7 20L8 21L7 20z"/>
<path style="fill:#516f55; stroke:none;" d="M24 20L22 26L24 20z"/>
<path style="fill:#a3a2a1; stroke:none;" d="M54 20L55 21L54 20z"/>
<path style="fill:#516f55; stroke:none;" d="M6 21L7 22L6 21z"/>
<path style="fill:#a3a2a1; stroke:none;" d="M42 21L43 22L42 21M6 22L7 23L6 22z"/>
<path style="fill:#516f55; stroke:none;" d="M36.3333 22.6667L36.6667 23.3333L36.3333 22.6667M5 23L6 24L5 23z"/>
<path style="fill:#a3a2a1; stroke:none;" d="M5 24L6 25L5 24z"/>
<path style="fill:#516f55; stroke:none;" d="M37 24L41 29L37 24M4.33333 25.6667L4.66667 26.3333L4.33333 25.6667z"/>
<path style="fill:#a3a2a1; stroke:none;" d="M45 25L46 26L45 25z"/>
<path style="fill:#262422; stroke:none;" d="M74 25L75 26L74 25z"/>
<path style="fill:#516f55; stroke:none;" d="M26.3333 26.6667L26.6667 27.3333L26.3333 26.6667z"/>
<path style="fill:#a3a2a1; stroke:none;" d="M46 26L47 27L46 26M4 27L5 28L4 27M47 27L48 28L47 27M72 27L72 30L73 30L72 27z"/>
<path style="fill:#516f55; stroke:none;" d="M3.33333 28.6667L3.66667 29.3333L3.33333 28.6667M27 28L28 29L27 28z"/>
<path style="fill:#a3a2a1; stroke:none;" d="M50 28L51 29L50 28M3 30L3 33L4 33L3 30M30 32L31 33L30 32M37 34L40 33L37 34M45 32L46 33L45 32z"/>
<path style="fill:#516f55; stroke:none;" d="M2 33L2 49L3 49L2 33z"/>
<path style="fill:#a3a2a1; stroke:none;" d="M31 33L32 34L31 33M73 33L73 41L74 41L73 33M33.6667 34.3333L34.3333 34.6667L33.6667 34.3333M36 35L36 36L41 36L41 37L39 42L40 42L42 36L36 35M6 38L7 38C6.30113 34.5056 9.55771 35.7691 9 38L10 38L11 36C8.16871 35.1933 6.39174 34.8493 6 38M25 49C21.0813 49 20.6044 37.4221 25 36L25 37L23 37L23 38L26 37C17.7798 31.3938 20.2719 53.9939 25 49M32 35L33 36L32 35M47 35L48 36L47 35M60 36L60 37L63 38L63 37C61.0399 36.3466 60.446 36 63 36L60 36M68 35L69 36L68 35z"/>
<path style="fill:#516f55; stroke:none;" d="M6 36L8 45L9 45L6 36z"/>
<path style="fill:#262422; stroke:none;" d="M7 36L7 37L10 37L7 36z"/>
<path style="fill:#516f55; stroke:none;" d="M13 36L13 46L14 46L15 43L16 46L17 46L17 36L16 36L16 42L14 42L13 36z"/>
<path style="fill:#a3a2a1; stroke:none;" d="M14 36L14 42L15 42L14 36M17 36L16 51L17 51L17 36z"/>
<path style="fill:#262422; stroke:none;" d="M22 36L22 37L25 37L22 36z"/>
<path style="fill:#516f55; stroke:none;" d="M31 36L32 37L31 36z"/>
<path style="fill:#262422; stroke:none;" d="M31 38L34 37L31 38z"/>
<path style="fill:#a3a2a1; stroke:none;" d="M34 36L35 37L34 36z"/>
<path style="fill:#262422; stroke:none;" d="M38 36L38 44L39 44L41 37L38 36z"/>
<path style="fill:#a3a2a1; stroke:none;" d="M45 36L46 45L47 45L45 36z"/>
<path style="fill:#262422; stroke:none;" d="M46 36L46 37L48 43L49 43L46 36z"/>
<path style="fill:#516f55; stroke:none;" d="M48 36L49 37L48 36z"/>
<path style="fill:#a3a2a1; stroke:none;" d="M52 36L52 50L53 50L54 47L55 47L56 50L57 45L56 45L55 47L52 36z"/>
<path style="fill:#516f55; stroke:none;" d="M53 36L54 37L53 36z"/>
<path style="fill:#a3a2a1; stroke:none;" d="M55 36L55 41L56 41L55 36z"/>
<path style="fill:#516f55; stroke:none;" d="M56 36L54 40L53 43L56 47L56 36z"/>
<path style="fill:#262422; stroke:none;" d="M61 36L61 37L63 44L64 44L61 36z"/>
<path style="fill:#516f55; stroke:none;" d="M63 36L64 37L63 36M67 36L68 37L67 36z"/>
<path style="fill:#262422; stroke:none;" d="M67 38L70 37L67 38z"/>
<path style="fill:#a3a2a1; stroke:none;" d="M70 36L71 37L70 36z"/>
<path style="fill:#516f55; stroke:none;" d="M22 37L22 42L23 42L22 37z"/>
<path style="fill:#a3a2a1; stroke:none;" d="M30 37L31 51L35 46L34 46L33 49L32 49L30 37M32 37L35 40L32 37z"/>
<path style="fill:#516f55; stroke:none;" d="M33 37L35 39L35 37L33 37z"/>
<path style="fill:#262422; stroke:none;" d="M41 37L41 42L42 42L41 37z"/>
<path style="fill:#516f55; stroke:none;" d="M45 37L46 38L45 37z"/>
<path style="fill:#a3a2a1; stroke:none;" d="M49 37L49 45L50 45L49 37z"/>
<path style="fill:#262422; stroke:none;" d="M53 37L55 43L53 37M60 37L60 44L61 44L60 37z"/>
<path style="fill:#a3a2a1; stroke:none;" d="M66 37C66.2562 40.3896 66.537 42.3044 70 43L69 49L68 49L67 46L67 51L72 50C71.2608 46.2598 71.058 42.8167 67 42L66 37M68 37L71 40L68 37z"/>
<path style="fill:#516f55; stroke:none;" d="M69 37L71 39L71 37L69 37M31 38L31 45L32 45L31 38z"/>
<path style="fill:#f5f6f5; stroke:none;" d="M40 38L40 42L41 42L40 38z"/>
<path style="fill:#a3a2a1; stroke:none;" d="M42 38L42 42L43 42L42 38z"/>
<path style="fill:#262422; stroke:none;" d="M45 38L45 43L46 43L45 38z"/>
<path style="fill:#f5f6f5; stroke:none;" d="M47 38L46 49L48 49L47 38M61 38L61 49L63 49L63 38L61 38z"/>
<path style="fill:#516f55; stroke:none;" d="M67 38L67 41L68 41L67 38z"/>
<path style="fill:#262422; stroke:none;" d="M67 41L68 42L67 41z"/>
<path style="fill:#516f55; stroke:none;" d="M73.3333 41.6667L73.6667 42.3333L73.3333 41.6667z"/>
<path style="fill:#262422; stroke:none;" d="M16.3333 42.6667L16.6667 43.3333L16.3333 42.6667M22.3333 42.6667L22.6667 43.3333L22.3333 42.6667z"/>
<path style="fill:#a3a2a1; stroke:none;" d="M23 42L24 43L23 42z"/>
<path style="fill:#516f55; stroke:none;" d="M39 42L38 46L39 46L40 43L41 46L42 46L42 42L39 42z"/>
<path style="fill:#262422; stroke:none;" d="M68 42L69 43L68 42z"/>
<path style="fill:#a3a2a1; stroke:none;" d="M3 43L6 57L7 57L3 43M7 43L7 50L8 50L7 43z"/>
<path style="fill:#262422; stroke:none;" d="M14 43L15 44L14 43z"/>
<path style="fill:#516f55; stroke:none;" d="M23 43L24 44L23 43z"/>
<path style="fill:#262422; stroke:none;" d="M40 43L41 44L40 43z"/>
<path style="fill:#516f55; stroke:none;" d="M45 43L45 46L46 46L45 43M48 43L48 46L49 46L48 43z"/>
<path style="fill:#262422; stroke:none;" d="M55.3333 43.6667L55.6667 44.3333L55.3333 43.6667M69 43L70 44L69 43z"/>
<path style="fill:#a3a2a1; stroke:none;" d="M14 44L13 51L14 51L14 44z"/>
<path style="fill:#516f55; stroke:none;" d="M22 44L23 45L22 44z"/>
<path style="fill:#a3a2a1; stroke:none;" d="M39.6667 44.3333L40.3333 44.6667L39.6667 44.3333z"/>
<path style="fill:#516f55; stroke:none;" d="M60.3333 44.6667L60.6667 45.3333L60.3333 44.6667M63.3333 44.6667L63.6667 45.3333L63.3333 44.6667M69 44L70 45L69 44M0 45L0 76L31 76L31 75C13.23 72.3365 7.53366 58.8399 0 45z"/>
<path style="fill:#a3a2a1; stroke:none;" d="M72 45L73 46L72 45M38 46L38 50L39 50L38 46M41 46L41 50L42 50L41 46M45 46L46 51L48 51L49 46L48 46L47 49L45 46M60 46L61 51L63 51L64 46L63 46L62 49L60 46z"/>
<path style="fill:#516f55; stroke:none;" d="M72.3333 46.6667L72.6667 47.3333L72.3333 46.6667M75 46C71.6688 60.0248 59.5497 72.8192 45 75L45 76L76 76L75 46M3 51L4 52L3 51z"/>
<path style="fill:#a3a2a1; stroke:none;" d="M70 51L71 52L70 51z"/>
<path style="fill:#516f55; stroke:none;" d="M70 52L71 53L70 52M4 53L5 54L4 53z"/>
<path style="fill:#a3a2a1; stroke:none;" d="M69 53L70 54L69 53M20 64L22 61L22 60L17 61L17 57L21 58L18 56L18 55L21 55C14.3992 52.837 16.1115 61.5461 20 64M29 54L26 61L32 58L29 54M36 59L37 59C39.6151 56.1229 41.139 55.3625 45 56C41.6126 52.1282 37.4792 54.9768 36 59M51 54L50 63L51 63L51 54M54 61L55 61L59 60L59 61L56 61L56 62L60 63L56 59L56 58L59 57L56 56L56 55L58 55C54.1401 54.1331 54.1002 57.9394 54 61z"/>
<path style="fill:#516f55; stroke:none;" d="M69 54L70 55L69 54M5 55L6 56L5 55z"/>
<path style="fill:#a3a2a1; stroke:none;" d="M68 55L69 56L68 55z"/>
<path style="fill:#516f55; stroke:none;" d="M6 57L7 58L6 57M17 57L17 61L21 61L21 60L17 57M28 57L29 58L28 57M30 57L31 58L30 57z"/>
<path style="fill:#a3a2a1; stroke:none;" d="M42 59L46 60C47.2553 56.67 43.5607 56.8565 42 59z"/>
<path style="fill:#516f55; stroke:none;" d="M55 57L56 58L55 57M67 57L68 58L67 57z"/>
<path style="fill:#a3a2a1; stroke:none;" d="M7 58L8 59L7 58z"/>
<path style="fill:#516f55; stroke:none;" d="M27 58L28 59L27 58M31.3333 58.6667L31.6667 59.3333L31.3333 58.6667M37 58C38.7787 63.6305 44.2769 63.672 46 58L45 58C42.603 61.9424 40.1671 60.5168 37 58M51 58L51 63L59 63L59 62L56 62L56 61L59 61L59 60L55 59L51 58z"/>
<path style="fill:#a3a2a1; stroke:none;" d="M66 58L67 59L66 58M8 59L9 60L8 59M32 59L33 60L32 59M65 59L66 60L65 59M31 60L32 61L31 60M44 60L45 61L44 60M64 60L65 61L64 60z"/>
<path style="fill:#516f55; stroke:none;" d="M9 61L10 62L9 61z"/>
<path style="fill:#a3a2a1; stroke:none;" d="M40 61L40 62L43 62L40 61M45 61L46 62L45 61z"/>
<path style="fill:#262422; stroke:none;" d="M51 61L52 62L51 61z"/>
<path style="fill:#516f55; stroke:none;" d="M10 62L11 63L10 62z"/>
<path style="fill:#262422; stroke:none;" d="M19 62L20 63L19 62z"/>
<path style="fill:#a3a2a1; stroke:none;" d="M28 62L28 64L30 64L28 62z"/>
<path style="fill:#262422; stroke:none;" d="M29 62L30 63L29 62z"/>
<path style="fill:#a3a2a1; stroke:none;" d="M39 62L40 63L39 62M52.6667 62.3333L53.3333 62.6667L52.6667 62.3333z"/>
<path style="fill:#516f55; stroke:none;" d="M63 62L64 63L63 62M11 63L12 64L11 63z"/>
<path style="fill:#a3a2a1; stroke:none;" d="M61 63L62 64L61 63z"/>
<path style="fill:#516f55; stroke:none;" d="M12 64L13 65L12 64z"/>
<path style="fill:#a3a2a1; stroke:none;" d="M60 64L61 65L60 64z"/>
<path style="fill:#516f55; stroke:none;" d="M13 65L14 66L13 65z"/>
<path style="fill:#a3a2a1; stroke:none;" d="M14 65L15 66L14 65M59 65L60 66L59 65M15 66L15 67L27 71L15 66z"/>
<path style="fill:#516f55; stroke:none;" d="M58 66L59 67L58 66z"/>
<path style="fill:#a3a2a1; stroke:none;" d="M56 67L57 68L56 67z"/>
<path style="fill:#516f55; stroke:none;" d="M17 68L18 69L17 68z"/>
<path style="fill:#a3a2a1; stroke:none;" d="M54 68L55 69L54 68z"/>
<path style="fill:#516f55; stroke:none;" d="M55 68L56 69L55 68M19 69L20 70L19 69z"/>
<path style="fill:#a3a2a1; stroke:none;" d="M52 69L53 70L52 69z"/>
<path style="fill:#516f55; stroke:none;" d="M53 69L54 70L53 69M21.6667 70.3333L22.3333 70.6667L21.6667 70.3333z"/>
<path style="fill:#a3a2a1; stroke:none;" d="M49 70L50 71L49 70z"/>
<path style="fill:#516f55; stroke:none;" d="M50 70L51 71L50 70M23 71L23 72L34 73L23 71z"/>
<path style="fill:#a3a2a1; stroke:none;" d="M28 71L28 72L31 72L28 71M46 71L47 72L46 71z"/>
<path style="fill:#516f55; stroke:none;" d="M47 71L48 72L47 71z"/>
<path style="fill:#a3a2a1; stroke:none;" d="M34 72L34 73L41 73L34 72z"/>
<path style="fill:#516f55; stroke:none;" d="M41 72L41 73L44 73L41 72z"/>
</svg>
